<svg data-v-0dd9719b="" version="1.0" xmlns="http://www.w3.org/2000/svg" xmlns:xlink="http://www.w3.org/1999/xlink" width="100%" height="100%" viewBox="0 0 340.000000 250.000000" preserveAspectRatio="xMidYMid meet" color-interpolation-filters="sRGB" style="margin: auto;"> <rect data-v-0dd9719b="" x="0" y="0" width="100%" height="100%" fill="#ffffff" fill-opacity="1" class="background"></rect> <rect data-v-0dd9719b="" x="0" y="0" width="100%" height="100%" fill="url(#watermark)" fill-opacity="1" class="watermarklayer"></rect> <g data-v-0dd9719b="" fill="#333333" class="icon-text-wrapper icon-svg-group iconsvg" transform="translate(49.224998474121094,95.03386306762695)"><g class="iconsvg-imagesvg" transform="translate(0,0)"><g><rect fill="#333333" fill-opacity="0" stroke-width="2" x="0" y="0" width="60" height="59.9322765275239" class="image-rect"></rect> <svg filter="url(#colors4901061655)" x="0" y="0" width="60" height="59.9322765275239" filtersec="colorsf98218713" class="image-svg-svg primary" style="overflow: visible;"><svg xmlns="http://www.w3.org/2000/svg" viewBox="0.7999999999999998 0.7999999999999998 92.7 92.60001"><path d="M56 64.8l26.6-26.6 8.9 8.9-44.4 44.3L2.8 47.1l8.9-8.9 35.4 35.4 8.9-8.8m8.8 8.9L29.4 38.3 56 11.7l-8.9-8.9-35.4 35.5m70.8 0L47.1 2.8m-4.4 48.7" fill="none" stroke="#202121" stroke-width="4" stroke-miterlimit="10"></path></svg></svg> <defs><filter id="colors4901061655"><feColorMatrix type="matrix" values="0 0 0 0 0.96484375  0 0 0 0 0.85546875  0 0 0 0 0.328125  0 0 0 1 0" class="icon-fecolormatrix"></feColorMatrix></filter> <filter id="colorsf98218713"><feColorMatrix type="matrix" values="0 0 0 0 0.99609375  0 0 0 0 0.99609375  0 0 0 0 0.99609375  0 0 0 1 0" class="icon-fecolormatrix"></feColorMatrix></filter> <filter id="colorsb6369634703"><feColorMatrix type="matrix" values="0 0 0 0 0  0 0 0 0 0  0 0 0 0 0  0 0 0 1 0" class="icon-fecolormatrix"></feColorMatrix></filter></defs></g></g> <g transform="translate(67,2.1898860931396484)"><g data-gra="path-name" fill-rule="" class="tp-name iconsvg-namesvg" transform="translate(0,0)"><g transform="scale(1)"><g><path d="M38.32-36.04L38.32-36.04Q38.5-35.68 39.02-34.8L39.02-34.8Q40.78-31.29 40.43-31.29L40.43-31.29Q39.38-31.64 37.97-31.64L37.97-31.64Q37.62-31.64 35.86-31.29L35.86-31.29Q29.53-30.41 25.84-30.41L25.84-30.41 25.84-23.03 37.79-23.03Q41.48-23.03 42.54-23.38L42.54-23.38 42.54-19.34Q42.36-19.34 42.19-19.34L42.19-19.34Q39.55-19.69 37.79-19.69L37.79-19.69 35.51-19.69 35.51-1.76Q35.51 1.93 35.86 4.04L35.86 4.04 31.64 4.04Q31.99 1.58 31.99-1.93L31.99-1.93 31.99-19.69 25.84-19.69Q25.66-9.84 24.08-5.98L24.08-5.98Q22.32-1.23 17.23 3.16L17.23 3.16Q14.94 0.7 13.01 0.35L13.01 0.35Q18.81-2.11 20.57-7.03L20.57-7.03Q22.5-11.43 22.32-23.91L22.32-23.91Q22.32-31.11 21.97-33.22L21.97-33.22Q30.76-33.05 38.32-36.04ZM3.69-33.75L3.69-33.75Q6.15-33.4 7.38-33.4L7.38-33.4 13.89-33.4Q16.17-33.4 17.75-33.93L17.75-33.93Q17.75-33.75 17.58-33.05L17.58-33.05Q17.23-30.41 17.23-29.71L17.23-29.71 17.23-9.67Q17.23-6.15 17.75-3.69L17.75-3.69 13.18-3.69Q13.71-5.1 13.54-6.68L13.54-6.68 7.91-6.68Q7.91-3.16 8.09-0.88L8.09-0.88 3.69-0.88Q4.04-2.29 4.04-6.68L4.04-6.68 4.04-30.23Q4.04-32.7 3.69-33.75ZM13.71-21.62L13.71-30.41 7.73-30.41 7.73-21.62 13.71-21.62ZM13.71-9.67L13.71-18.63 7.73-18.63 7.73-9.67 13.71-9.67ZM72.07-35.68L72.07-35.68Q76.46-35.68 76.64-35.16L76.64-35.16Q76.64-34.8 76.46-34.45L76.46-34.45Q76.11-33.57 75.94-32.52L75.94-32.52Q75.94-31.82 75.76-29.18L75.76-29.18Q75.59-26.19 75.59-24.26L75.59-24.26 79.98-24.26Q83.85-24.43 86.31-24.61L86.31-24.61 86.31-20.74Q83.5-21.09 79.8-21.09L79.8-21.09 76.11-21.09Q79.1-11.95 87.71-10.2L87.71-10.2Q85.96-8.61 84.73-6.33L84.73-6.33Q75.06-11.07 74.36-19.16L74.36-19.16Q72.42-10.2 64.69-5.45L64.69-5.45Q63.11-7.38 60.82-8.26L60.82-8.26Q70.31-11.6 71.54-21.27L71.54-21.27 70.14-21.27Q69.26-21.27 67.85-21.09L67.85-21.09Q66.45-21.09 65.92-21.09L65.92-21.09 65.92-24.61Q68.73-24.26 69.96-24.26L69.96-24.26 71.89-24.26Q71.89-25.14 71.89-29.18L71.89-29.18Q72.07-34.28 72.07-35.68ZM54.84-35.51L54.84-35.51Q59.59-34.63 59.41-34.1L59.41-34.1Q59.41-33.93 59.06-33.57L59.06-33.57Q58.54-33.05 58.18-32.52L58.18-32.52Q57.83-31.82 57.3-30.76L57.3-30.76Q56.95-29.71 56.6-29L56.6-29 59.77-29Q64.34-29 65.74-29.36L65.74-29.36Q66.09-29.36 65.92-28.83L65.92-28.83Q64.86-17.4 60.47-12.66L60.47-12.66Q56.6-8.26 50.45-4.75L50.45-4.75Q49.57-5.8 47.46-7.73L47.46-7.73Q50.63-8.61 55.02-11.95L55.02-11.95Q52.21-14.24 50.27-15.12L50.27-15.12 52.91-17.4Q53.26-17.05 54.32-16.35L54.32-16.35Q56.78-14.77 57.3-14.06L57.3-14.06Q58.36-14.94 59.77-17.23L59.77-17.23Q58.18-18.46 54.14-20.92L54.14-20.92 56.78-23.2Q60.12-20.92 61-19.86L61-19.86Q61-20.21 61.35-21.09L61.35-21.09Q62.23-24.43 62.4-26.02L62.4-26.02 55.55-26.02Q55.02-25.31 53.96-23.73L53.96-23.73Q51.5-19.86 50.27-18.28L50.27-18.28 46.76-20.21Q52.56-25.49 54.84-35.51ZM77.7-31.99L81.21-33.22Q81.91-32.52 83.67-28.65L83.67-28.65Q83.85-28.13 84.02-27.95L84.02-27.95 80.16-26.54Q79.45-29.18 77.7-31.99L77.7-31.99ZM77.34-4.92L81.56-6.15Q83.14-4.22 86.66 1.76L86.66 1.76 82.27 3.52Q80.51-0.35 77.34-4.92L77.34-4.92ZM68.38-4.57L72.07-5.45Q72.77-4.04 73.65-1.41L73.65-1.41Q74.36 0.7 74.88 2.11L74.88 2.11 70.49 2.81Q69.96-0.18 68.38-4.57L68.38-4.57ZM52.03-4.92L52.03-4.92 55.9-3.52Q53.44 1.76 51.68 4.39L51.68 4.39Q50.1 3.52 47.46 2.99L47.46 2.99Q50.45-0.7 52.03-4.92ZM59.24-4.04L62.93-4.57Q64.51 0.18 64.69 2.81L64.69 2.81 60.47 3.16Q60.47 0.18 59.24-4.04L59.24-4.04ZM95.27-34.63L95.27-34.63Q97.21-34.45 102.13-34.28L102.13-34.28 121.99-34.28Q127.97-34.45 129.9-34.63L129.9-34.63Q129.73-32.7 129.55-27.77L129.55-27.77 129.55-1.93Q130.96 4.04 121.64 4.04L121.64 4.04Q121.46 1.41 119.53-0.53L119.53-0.53Q127.09 0.88 125.86-2.99L125.86-2.99 125.86-30.94 99.14-30.94 99.14-4.39Q99.14 1.41 99.49 3.16L99.49 3.16 94.92 3.16Q95.45 0.18 95.45-4.22L95.45-4.22 95.45-27.07Q95.45-33.05 95.27-34.63ZM99.32-4.57L99.32-4.57Q103.01-9.14 105.64-15.47L105.64-15.47Q102.83-21.62 100.02-25.49L100.02-25.49Q101.43-25.84 103.36-26.54L103.36-26.54Q105.29-23.03 107.05-19.34L107.05-19.34Q108.63-24.08 108.98-28.48L108.98-28.48Q109.51-28.3 110.74-27.95L110.74-27.95Q113.73-27.07 113.38-26.89L113.38-26.89Q113.38-26.89 113.2-26.72L113.2-26.72Q112.68-26.19 112.15-25.14L112.15-25.14Q111.8-24.26 111.09-22.32L111.09-22.32Q109.86-18.81 108.81-16L108.81-16Q110.74-12.48 112.68-8.79L112.68-8.79Q112.32-8.61 111.8-8.26L111.8-8.26Q110.04-7.38 109.16-6.68L109.16-6.68Q108.28-10.02 107.23-12.3L107.23-12.3Q104.41-5.98 102.66-2.99L102.66-2.99Q101.78-3.87 99.32-4.57ZM117.25-14.94L117.25-14.94Q114.96-19.51 112.85-22.5L112.85-22.5Q112.32-23.38 111.97-23.91L111.97-23.91Q112.85-24.26 114.26-24.79L114.26-24.79Q114.96-25.14 115.31-25.31L115.31-25.31Q116.72-22.5 117.95-19.86L117.95-19.86Q118.48-18.46 118.65-18.81L118.65-18.81Q120.06-23.2 120.41-27.77L120.41-27.77Q124.8-27.07 124.98-26.54L124.98-26.54Q124.98-26.54 124.8-26.37L124.8-26.37Q124.28-25.84 123.93-25.31L123.93-25.31Q123.75-24.61 123.22-23.38L123.22-23.38Q122.7-21.27 120.41-15.12L120.41-15.12Q123.57-8.44 124.8-5.98L124.8-5.98Q124.45-5.8 123.57-5.45L123.57-5.45Q122.17-4.92 121.11-4.39L121.11-4.39Q120.06-7.73 118.83-11.6L118.83-11.6Q118.48-10.9 117.6-9.32L117.6-9.32Q115.31-5.45 113.73-2.81L113.73-2.81Q111.8-3.69 109.51-4.22L109.51-4.22Q114.96-8.61 117.25-14.94ZM159.61-35.86L159.61-35.86Q159.96-35.86 160.84-35.68L160.84-35.68Q164.71-35.16 164.36-34.8L164.36-34.8Q164.36-34.63 164-34.45L164-34.45Q162.6-33.57 161.72-30.94L161.72-30.94Q171.56-30.94 174.9-31.29L174.9-31.29Q171.56-24.61 166.82-19.34L166.82-19.34Q172.44-15.47 178.24-15.12L178.24-15.12Q176.48-13.18 175.78-10.55L175.78-10.55Q174.02-11.07 172.79-11.95L172.79-11.95 172.79-2.11Q172.79 2.11 173.14 3.69L173.14 3.69 168.93 3.69Q169.28 2.29 169.28 0.18L169.28 0.18 159.43 0.18Q159.43 2.11 159.61 3.87L159.61 3.87 155.39 3.87Q155.74 1.23 155.74-1.93L155.74-1.93 155.74-11.78Q154.51-11.07 153.46-10.37L153.46-10.37Q152.4-12.83 150.82-13.71L150.82-13.71Q156.97-15.47 162.25-19.51L162.25-19.51Q159.96-22.68 159.08-25.14L159.08-25.14Q158.55-24.43 157.85-23.03L157.85-23.03Q156.45-20.74 155.57-19.51L155.57-19.51Q154.16-21.09 152.05-20.92L152.05-20.92Q156.62-25.49 159.61-35.86ZM169.1-27.95L160.84-27.95Q162.77-23.55 164.53-21.62L164.53-21.62Q167.34-24.96 169.1-27.95L169.1-27.95ZM164.53-17.23L164.53-17.23Q161.19-14.77 156.8-12.3L156.8-12.3Q158.38-12.13 159.96-12.13L159.96-12.13 168.4-12.13Q169.98-12.13 171.56-12.3L171.56-12.3Q167.34-14.41 164.53-17.23ZM169.28-9.14L159.26-9.14 159.26-2.46 169.28-2.46 169.28-9.14ZM152.05-5.1L152.05-5.1Q151.52-3.16 151.7-1.41L151.7-1.41Q145.37-0.53 138.52 1.41L138.52 1.41Q138.52 1.05 138.34 0.53L138.34 0.53Q138.16-1.58 137.64-2.99L137.64-2.99Q144.14-2.81 152.05-5.1ZM144.84-36.21L144.84-36.21Q149.59-34.63 149.41-33.93L149.41-33.93Q149.41-33.75 148.71-33.22L148.71-33.22Q147.66-32.52 147.3-31.64L147.3-31.64Q143.44-24.79 140.8-21.62L140.8-21.62 147.3-22.32Q148.71-24.79 149.94-28.48L149.94-28.48Q153.81-26.89 153.98-26.02L153.98-26.02Q153.98-25.84 153.63-25.66L153.63-25.66Q152.4-24.96 151.52-23.38L151.52-23.38Q148.36-17.75 143.09-11.6L143.09-11.6 150.47-12.48Q150.12-11.6 150.12-10.37L150.12-10.37Q149.94-9.67 149.94-9.32L149.94-9.32Q142.91-9.14 139.22-7.91L139.22-7.91Q138.87-9.49 138.34-11.6L138.34-11.6Q138.16-11.95 138.16-12.13L138.16-12.13Q140.98-11.78 145.72-19.69L145.72-19.69Q140.45-19.34 138.16-18.46L138.16-18.46Q138.16-19.69 137.11-22.32L137.11-22.32Q138.34-23.03 139.39-24.61L139.39-24.61Q142.91-29.88 144.84-36.21Z" transform="translate(-3.690000057220459, 36.209999084472656)"></path></g> <!----> <!----> <!----> <!----> <!----> <!----> <!----></g></g> <g data-gra="path-slogan" fill-rule="" class="tp-slogan iconsvg-slogansvg" fill="#333333" transform="translate(5,46.599998474121094)"><rect x="0" height="1" y="3.9750003814697266" width="24.615001678466797"></rect> <rect height="1" y="3.9750003814697266" width="24.615001678466797" x="139.93500137329102"></rect> <g transform="translate(27.615001678466797,0)"><g transform="scale(1)"><path d="M7.64-8.58L4.73-4.41L7.78 0L6.33 0L3.98-3.52L1.64 0L0.23 0L3.33-4.41L0.42-8.58L1.88-8.58L4.03-5.30L6.23-8.58L7.64-8.58ZM9.05-8.58L10.22-8.58L10.22 0L9.05 0L9.05-8.58ZM13.59-8.58L17.91-1.64L17.91-8.58L19.03-8.58L19.03 0L17.72 0L13.36-6.94L13.31-6.94L13.31 0L12.19 0L12.19-8.58L13.59-8.58ZM24.94-3.70L22.13-3.70L22.13 0L20.95 0L20.95-8.58L24.94-8.58Q27.80-8.58 27.80-6.28L27.80-6.28Q27.80-4.88 26.58-4.22L26.58-4.22Q27.61-3.94 27.61-2.58L27.61-2.58L27.70-1.03Q27.66-0.38 28.13-0.19L28.13-0.19L28.13 0L26.67 0Q26.53-0.61 26.48-2.16L26.48-2.16Q26.53-3.70 24.94-3.70L24.94-3.70ZM25.03-7.64L22.13-7.64L22.13-4.69L24.84-4.69Q26.58-4.69 26.58-6.19L26.58-6.19Q26.58-7.64 25.03-7.64L25.03-7.64ZM35.11 0L34.27-2.48L30.80-2.48L29.91 0L28.73 0L31.97-8.58L33.28-8.58L36.38 0L35.11 0ZM32.53-7.31L31.17-3.52L33.84-3.52L32.58-7.31L32.53-7.31ZM38.81-8.58L43.13-1.64L43.13-8.58L44.25-8.58L44.25 0L42.94 0L38.58-6.94L38.53-6.94L38.53 0L37.41 0L37.41-8.58L38.81-8.58ZM50.77-8.58L55.08-1.64L55.08-8.58L56.20-8.58L56.20 0L54.89 0L50.53-6.94L50.48-6.94L50.48 0L49.36 0L49.36-8.58L50.77-8.58ZM59.30-1.03L64.45-1.03L64.45 0L58.13 0L58.13-8.58L64.36-8.58L64.36-7.59L59.30-7.59L59.30-4.92L63.98-4.92L63.98-3.89L59.30-3.89L59.30-1.03ZM68.16-7.59L65.25-7.59L65.25-8.58L72.19-8.58L72.19-7.59L69.28-7.59L69.28 0L68.16 0L68.16-7.59ZM78-7.13L77.95-7.13L75.98 0L74.77 0L72.52-8.58L73.73-8.58L75.38-1.59L75.42-1.59L77.34-8.58L78.61-8.58L80.53-1.59L80.58-1.59L82.17-8.58L83.44-8.58L81.19 0L79.97 0L78-7.13ZM91.31-4.27L91.31-4.27Q91.13-7.64 88.31-7.83L88.31-7.83Q85.45-7.69 85.31-4.27L85.31-4.27Q85.45-0.94 88.31-0.80L88.31-0.80Q91.13-0.98 91.31-4.27ZM92.48-4.27L92.48-4.27Q92.20 0 88.31 0.14L88.31 0.14Q84.38 0 84.09-4.27L84.09-4.27Q84.33-8.72 88.31-8.81L88.31-8.81Q92.20-8.67 92.48-4.27ZM97.97-3.70L95.16-3.70L95.16 0L93.98 0L93.98-8.58L97.97-8.58Q100.83-8.58 100.83-6.28L100.83-6.28Q100.83-4.88 99.61-4.22L99.61-4.22Q100.64-3.94 100.64-2.58L100.64-2.58L100.73-1.03Q100.69-0.38 101.16-0.19L101.16-0.19L101.16 0L99.70 0Q99.56-0.61 99.52-2.16L99.52-2.16Q99.56-3.70 97.97-3.70L97.97-3.70ZM98.06-7.64L95.16-7.64L95.16-4.69L97.88-4.69Q99.61-4.69 99.61-6.19L99.61-6.19Q99.61-7.64 98.06-7.64L98.06-7.64ZM105-4.31L103.64-3.05L103.64 0L102.47 0L102.47-8.58L103.64-8.58L103.64-4.41L107.81-8.58L109.45-8.58L105.84-5.11L109.55 0L108 0L105-4.31Z" transform="translate(-0.234375, 8.8125)"></path></g></g></g></g></g><defs v-gra="od"></defs></svg>